<svg xmlns="http://www.w3.org/2000/svg" viewBox="0 0 512 512">
  <path fill="#32bcad" d="M344.02 186.27c-3.1-3.1-8.13-3.1-11.23 0l-57.73 57.73c-3.1 3.1-8.13 3.1-11.23 0l-57.73-57.73c-3.1-3.1-8.13-3.1-11.23 0l-45.64 45.64c-3.1 3.1-3.1 8.13 0 11.23l57.73 57.73c3.1 3.1 3.1 8.13 0 11.23l-57.73 57.73c-3.1 3.1-3.1 8.13 0 11.23l45.64 45.64c3.1 3.1 8.13 3.1 11.23 0l57.73-57.73c3.1-3.1 8.13-3.1 11.23 0l57.73 57.73c3.1 3.1 8.13 3.1 11.23 0l45.64-45.64c3.1-3.1 3.1-8.13 0-11.23l-57.73-57.73c-3.1-3.1-3.1-8.13 0-11.23l57.73-57.73c3.1-3.1 3.1-8.13 0-11.23l-45.64-45.64z"/>
  <path fill="#32bcad" d="M464 256c0-114.87-93.13-208-208-208S48 141.13 48 256s93.13 208 208 208 208-93.13 208-208zm-208 256C114.62 512 0 397.38 0 256S114.62 0 256 0s256 114.62 256 256-114.62 256-256 256z"/>
</svg>