<svg xmlns="http://www.w3.org/2000/svg" viewBox="0 0 48 48"><path fill="#1565C0" d="M12.983 26.68h3.352l2.094-12.723h-3.351z"/><path fill="#1565C0" d="m39.263 14.161l-3.21 9.172l-1.328-6.666c-.234-1.185-1.16-2.506-2.456-2.506h-5.467v.641c1.109.243 2.373.666 3.141 1.135c.475.29.611.543.766 1.16l2.585 9.872h3.53l5.353-12.808z"/><path fill="#1565C0" d="m11.595 14.161h-5.18l-.053.25c4.032 1.029 6.703 3.518 7.807 6.517l-1.13-5.717c-.187-.803-.761-1.05-1.444-1.05z"/><path fill="#1565C0" d="m22.615 22.083c.01-.226.02-.451.02-.676c0-4.305-6.046-4.542-6.046-6.467c0-.585.556-1.205 1.745-1.353c.59-.074 2.215-.133 4.091.73l.718-3.411c-.98-.356-2.253-.695-3.805-.695c-4.008 0-6.829 2.133-6.829 5.418c0 2.255 2.011 3.504 3.545 4.254c1.574.769 2.103 1.258 2.103 1.943c0 1.05-1.264 1.531-2.428 1.531c-1.602 0-2.529-.241-3.873-.834l-.754 3.578c1.037.478 2.956.892 4.935.909c4.269.001 7.05-2.115 7.058-5.938z"/><path fill="#FFC107" d="M12.443 24.032l-.978-4.945c-.105-.183-.314-.351-.314-.351l-4.437-4.575h-.053l-.05.253l8.369 12.266h.815z"/></svg>